<svg width="20" height="15" viewBox="0 0 20 15" fill="none" xmlns="http://www.w3.org/2000/svg">
<path d="M18.832 8.56494C19.3843 8.56494 19.832 8.11723 19.832 7.56494C19.832 7.01266 19.3843 6.56494 18.832 6.56494L18.832 8.56494ZM1.12492 6.85783C0.7344 7.24836 0.7344 7.88152 1.12492 8.27205L7.48889 14.636C7.87941 15.0265 8.51257 15.0265 8.9031 14.636C9.29362 14.2455 9.29362 13.6123 8.9031 13.2218L3.24624 7.56494L8.9031 1.90809C9.29362 1.51756 9.29362 0.884397 8.9031 0.493873C8.51258 0.103348 7.87941 0.103348 7.48889 0.493873L1.12492 6.85783ZM18.832 6.56494L1.83203 6.56494L1.83203 8.56494L18.832 8.56494L18.832 6.56494Z" fill="black"/>
</svg>
