<svg width="14" height="14" viewBox="0 0 14 14" fill="none" xmlns="http://www.w3.org/2000/svg">
<path fill-rule="evenodd" clip-rule="evenodd" d="M2.81163 1.36607L2.31208 0.866523C1.93002 0.484462 1.2765 0.67852 1.16487 1.20718L0.628349 3.74803C0.527998 4.22328 0.943449 4.64766 1.42072 4.55743L4.00882 4.06816C4.54618 3.96657 4.75036 3.3048 4.36367 2.91811L3.75832 2.31276C4.53568 1.75779 5.45423 1.42082 6.41809 1.34594C7.67404 1.24838 8.92451 1.60224 9.94459 2.34388C10.9647 3.08551 11.6874 4.16624 11.9828 5.39168C12.2782 6.61713 12.1269 7.90686 11.5561 9.02889C10.9853 10.1509 10.0324 11.0316 8.8689 11.5126C7.70539 11.9936 6.40757 12.0432 5.2089 11.6526C4.01023 11.2621 2.98936 10.4569 2.32993 9.3819C1.7863 8.49572 1.51771 7.47414 1.54983 6.44557C1.56122 6.08083 1.31979 5.742 0.959431 5.68456C0.598061 5.62696 0.25506 5.87386 0.234653 6.23923C0.159794 7.57951 0.494582 8.91762 1.20271 10.072C2.027 11.4157 3.30309 12.4221 4.80143 12.9104C6.29977 13.3986 7.92203 13.3365 9.37643 12.7353C10.8308 12.1341 12.0219 11.0332 12.7354 9.63069C13.449 8.22815 13.6381 6.61599 13.2688 5.08418C12.8996 3.55238 11.9961 2.20146 10.721 1.27442C9.44594 0.347384 7.88285 -0.094941 6.31292 0.0270095C5.03428 0.126333 3.81944 0.594656 2.81163 1.36607Z" fill="black"/>
</svg>
